<svg height="512" viewBox="0 0 58 58" width="512" xmlns="http://www.w3.org/2000/svg"><g id="Page-1" fill="none" fill-rule="evenodd"><g id="004---Cheeky-Unicorn"><path id="Path" d="m11 55h-.24c-10.76-.1-10.76-7.03-10.76-11 .10178177-1.9522967.87956737-3.808376 2.2-5.25.25154052-.3044008.65865725-.4322715 1.03907199-.3263606.38041473.1059109.66288011.4257675.72092801.8163606.02576697.7731618.36353141 1.5029359.93628332 2.0229343.57275192.5199985 1.33166821.7858951 2.10371668.7370657 4 0 6-4 4-9-1.93-4.83-3.87-18.07 6.84-18.95-.0013541.3234838.0527632.6448052.16.95.4246951 1.3614254 1.2213051 2.5771215 2.3 3.51.3610566.302176.4574694.8177744.23 1.23-.92 1.7-2.64 6.27.47 13.26 4 9 1 22-10 22z" fill="#ff5364"/><path id="Shape" d="m10 51c-5.537 0-7-3.925-7-6 0-.5522847.44771525-1 1-1s1 .4477153 1 1c.006.416.2 4.005 5 4.005 1.8944782-.0389489 3.6479543-1.0094027 4.687-2.594 1.9503343-2.9865362 2.4513619-6.6928179 1.364-10.09-.188-.565-.394-1.147-.6-1.744-1.908-5.394-4.522-12.781 2.8-18.529.281168-.2207901.6587681-.2748073.990562-.1417037s.5673741.4331063.618.787c.0506258.3538937-.091394.7079136-.372562.9287037-6.19 4.86-4.042 10.932-2.146 16.288.215.609.425 1.2.617 1.779 1.2969553 4.0055703.6898291 8.3843944-1.648 11.886-1.410649 2.1114766-3.7708638 3.3925757-6.31 3.425z" fill="#df4d60" fill-rule="nonzero"/><path id="Path" d="m35.86 5.81-5.37 3.84c-.3199027.22446872-.4768477.6168311-.4 1 .03.13.07.28.11.45-.3967982-.0644291-.7980108-.0978635-1.2-.1-1.5890812.1668772-3.0824848.8399606-4.26 1.92-.25-.28-.49-.59-.74-.92-.5926958-.9448777-1.5898898-1.5616606-2.7-1.67.79-1.56 3.36-5.33 9.7-5.33 1.6545039-.01120896 3.2985641.26280107 4.86.81z" fill="#67b9cc"/><path id="Path" d="m44 15.91v.09c.0038048.5001215-.0431017.9993405-.14 1.49v.01c-.62 2.89-3.03 3.24-4.86 2.24.7350701-2.5208528.3060051-5.2382644-1.17-7.41l2.1-4.2c.5208285.42274617 1.0027532.89128406 1.44 1.4 1.58652 1.7595243 2.5157028 4.0135876 2.63 6.38z" fill="#67b9cc"/><path id="Path" d="m44 0-4.07 8.13-3.61 7.22c-.200979.4193399-.668301.6404834-1.12.53-.07-.02-.13-.03-.21-.06.0046156-1.238166-.523614-2.4184859-1.45-3.24-.4060548-.3557856-.8605963-.6520793-1.35-.88-.6323307-.2912334-1.3020717-.4931653-1.99-.6-.04-.17-.08-.32-.11-.45-.0768477-.3831689.0800973-.77553128.4-1l5.37-3.84z" fill="#f3d55b"/><path id="Path" d="m47 12c.1917302 1.8917103-1.1231491 3.6054363-3 3.91-.1142972-2.3664124-1.04348-4.6204757-2.63-6.38.4725636-1.00787508 1.5202733-1.61737921 2.63-1.53 3 0 3 3 3 4z" fill="#d1d4d1"/><path id="Path" d="m35 16c.0607969 1.8379061-.7107701 3.6051618-2.1 4.81-.7987191.7220748-1.8243014 1.1429172-2.9 1.19-1.0896371.0518834-2.1594204-.3047111-3-1 0 0 2.32-.77 2.19-4.36-1.7085566-.9425838-3.2194423-2.2056164-4.45-3.72 1.1775152-1.0800394 2.6709188-1.7531228 4.26-1.92.4019892.0021365.8032018.0355709 1.2.1.6879283.1068347 1.3576693.3087666 1.99.6.4894037.2279207.9439452.5242144 1.35.88.926386.8215141 1.4546156 2.001834 1.45 3.24.0083116.0596196.0116565.1198266.01.18z" fill="#955ba5"/><path id="Path" d="m39 19.74c-.400771 1.326515-1.614399 2.2407815-3 2.26-1.1396389-.0273346-2.2348018-.4477358-3.1-1.19 1.3892299-1.2048382 2.1607969-2.9720939 2.1-4.81.0016565-.0601734-.0016884-.1203804-.01-.18.08.03.14.04.21.06.451699.1104834.919021-.1106601 1.12-.53l1.51-3.02c1.4760051 2.1717356 1.9050701 4.8891472 1.17 7.41z" fill="#894b9d"/><path id="Path" d="m58 35c0 5-3 12-14 12-2.2092708.0207369-4.4085025-.2997033-6.52-.95v.01c-.1044994.6847444-.1446746 1.3777672-.12 2.07.0239772 1.7548857.597542 3.4580935 1.64 4.87.8672235 1.1194504 1.6589735 2.2953829 2.37 3.52.1697574.3102528.1630156.6870969-.0177306.9910791-.1807461.3039822-.5086122.4898876-.8622694.4889209h-30.13c-.36865086.0017854-.70838443-.1994034-.88403604-.5235224s-.15872863-.7185927.04403604-1.0264776c.34850676-.5352094.7653588-1.0226573 1.24-1.45h.24c11 0 14-13 10-22-3.11-6.99-1.39-11.56-.47-13.26.2274694-.4122256.1310566-.927824-.23-1.23-1.0786949-.9328785-1.8753049-2.1485746-2.3-3.51-.1072368-.3051948-.1613541-.6265162-.16-.95-.01-1.9 1.59-3.81 3.46-3.72 1.1101102.1083394 2.1073042.7251223 2.7 1.67.25.33.49.64.74.92 1.2305577 1.5143836 2.7414434 2.7774162 4.45 3.72.13 3.59-2.19 4.36-2.19 4.36.8405796.6952889 1.9103629 1.0518834 3 1 1.0756986-.0470828 2.1012809-.4679252 2.9-1.19.8651982.7422642 1.9603611 1.1626654 3.1 1.19 1.385601-.0192185 2.599229-.933485 3-2.26 1.83 1 4.24.65 4.86-2.24 1.47 1.2 3.52 2.75 6.14 4.5 6 4 8 8 8 13z" fill="#ecf0f1"/><path id="Path" d="m37.48 46.06c-.1044994.6847444-.1446746 1.3777672-.12 2.07-.0244277-.0019645-.0482217-.0087628-.07-.02-3.6938487-1.0211003-6.9026185-3.3257416-9.05-6.5-.2683033-.4838614-.0992124-1.0934787.38-1.37.4779792-.2713883 1.0853915-.1061364 1.36.37 1.8162481 2.6081311 4.4584182 4.528108 7.5 5.45z" fill="#d1d4d1"/><path id="Shape" d="m48 33c-.5338153.0112942-1.0491116-.1957906-1.4266605-.5733395s-.5846337-.8928452-.5733395-1.4266605c-.007732-.5522847.4337153-1.006268.986-1.014s1.006268.4337153 1.014.986c.5600167 0 1.0139999.4539833 1.0139999 1.014s-.4539832 1.014-1.0139999 1.014z" fill="#547580" fill-rule="nonzero"/><path id="Shape" d="m53 31c-.5338153.0112942-1.0491116-.1957906-1.4266605-.5733395s-.5846337-.8928452-.5733395-1.4266605c-.007732-.5522847.4337153-1.006268.986-1.014s1.006268.4337153 1.014.986c.5600167 0 1.014.4539833 1.014 1.014s-.4539833 1.014-1.014 1.014z" fill="#547580" fill-rule="nonzero"/><path id="Path" d="m34.59 32c.2738483-.6310315.4134711-1.312118.41-2 0-2.21-1.34-4-3-4s-3 1.79-3 4c-.0034711.687882.1361517 1.3689685.41 2z" fill="#35495e"/><path id="Path" d="m52 38v1c-.0054966 2.2068582-1.7931418 3.9945034-4 4h-2c-2.2068582-.0054966-3.9945034-1.7931418-4-4v-1c0-.5522847.4477153-1 1-1h8c.5522847 0 1 .4477153 1 1z" fill="#fff"/><path id="Path" d="m45 40c0 .5522847-.4477153 1-1 1h-1.46c-.3529906-.6074777-.5392727-1.2974112-.54-2h2c.5522847 0 1 .4477153 1 1z" fill="#d1d4d1"/><path id="Path" d="m52 39c-.0007273.7025888-.1870094 1.3925223-.54 2h-1.46c-.5522847 0-1-.4477153-1-1s.4477153-1 1-1z" fill="#d1d4d1"/><path id="Path" d="m38.66 45.6-1.28 2.93-.27.61-7.27-3.3 1.5-3.44c.8836556-2.0213622 3.2386378-2.9436556 5.26-2.06s2.9436556 3.2386378 2.06 5.26z" fill="#ff5364"/><path id="Path" d="m37.11 49.14-3.87 8.86h-8.72l5.32-12.16z" fill="#fff"/><path id="Path" d="m35 33h-6c-.5522847 0-1-.4477153-1-1s.4477153-1 1-1h6c.5522847 0 1 .4477153 1 1s-.4477153 1-1 1z" fill="#d1d4d1"/><ellipse id="Oval" cx="32" cy="28.5" fill="#ecf0f1" rx="1" ry="1.5"/></g></g></svg>